<svg width="30" height="30" viewBox="0 0 30 30" fill="none" xmlns="http://www.w3.org/2000/svg">
<path fill-rule="evenodd" clip-rule="evenodd" d="M3.05144 14.9247H2.17291C1.26449 14.9247 0.452493 14.3647 0.136094 13.5221C-0.180292 12.6768 0.0668418 11.7279 0.75391 11.1397L12.8728 0.783366C14.0949 -0.261122 15.9063 -0.261122 17.1283 0.783366L29.2458 11.1397C29.9343 11.7279 30.18 12.6768 29.8637 13.5221C29.5486 14.3647 28.7353 14.9247 27.8282 14.9247H26.9497V26.7696C26.9497 28.5544 25.49 30 23.6908 30H18.2593C17.6591 30 17.173 29.5181 17.173 28.9232V22.4623C17.173 21.8674 16.6869 21.3855 16.0867 21.3855H13.9141C13.3139 21.3855 12.8278 21.8674 12.8278 22.4623V28.9232C12.8278 29.5181 12.3417 30 11.7415 30H6.31002C4.51083 30 3.05112 28.5544 3.05112 26.7696L3.05144 14.9247Z" fill="currentColor"/>
</svg>
