<svg width="28" height="28" viewBox="0 0 28 28" fill="none" xmlns="http://www.w3.org/2000/svg">
<path d="M24.6683 0H3.33174C1.49168 0 0 1.49166 0 3.33172V24.6682C0 26.5083 1.49168 28 3.33174 28H24.6683C26.5083 28 28 26.5083 28 24.6682V3.33172C28 1.49166 26.5083 0 24.6683 0ZM6.75895 24.9704H4.59338C3.92619 24.9704 3.38524 24.4297 3.38524 23.7623C3.38524 23.0949 3.92619 22.5541 4.59338 22.5541H6.75895C7.42614 22.5541 7.96708 23.0949 7.96708 23.7623C7.96708 24.4297 7.42614 24.9704 6.75895 24.9704ZM12.1394 23.9979C12.1233 24.0745 12.0991 24.1508 12.0669 24.2236C12.0387 24.2959 12.0026 24.3683 11.9581 24.4328C11.9139 24.4973 11.8616 24.5618 11.8051 24.6181C11.5837 24.8395 11.2695 24.9724 10.9513 24.9724C10.6332 24.9724 10.3231 24.8395 10.0977 24.6181C10.0413 24.5618 9.99291 24.4973 9.94868 24.4328C9.90425 24.3683 9.86806 24.2959 9.8358 24.2236C9.80768 24.1508 9.7835 24.0745 9.76738 23.9979C9.75127 23.9216 9.7432 23.841 9.7432 23.7642C9.7432 23.4461 9.87219 23.1323 10.0977 22.9065C10.5486 22.4554 11.3582 22.4597 11.8051 22.9065C12.0307 23.1323 12.1595 23.4461 12.1595 23.7642C12.1595 23.841 12.1514 23.9216 12.1394 23.9979ZM11.2802 19.6398C6.67075 19.6398 2.92081 15.8896 2.92081 11.2804C2.92081 6.67073 6.67075 2.92057 11.2802 2.92057C15.8896 2.92057 19.6398 6.67073 19.6398 11.2804C19.6398 15.8896 15.8896 19.6398 11.2802 19.6398ZM24.8348 17.1359C24.8348 17.9342 24.5239 18.6846 23.9596 19.2485L22.5172 20.6911C22.2813 20.927 21.972 21.045 21.6628 21.045C21.3537 21.045 21.0446 20.927 20.8086 20.6911C20.3367 20.2195 20.3367 19.4546 20.8084 18.9827L22.2512 17.5398C22.3576 17.4331 22.4185 17.2861 22.4185 17.1359V4.94198C22.4185 4.27458 22.9595 3.73382 23.6267 3.73382C24.2938 3.73382 24.8348 4.27458 24.8348 4.94198V17.1359Z" fill="currentColor"/>
<path d="M10.3406 10.3417C10.2785 10.4035 10.2253 10.47 10.1767 10.5405C10.1281 10.6162 10.0881 10.6914 10.0526 10.771C10.0217 10.8505 9.99513 10.9348 9.9774 11.0187C9.95966 11.1073 9.95081 11.1959 9.95081 11.2803C9.95081 11.6296 10.0926 11.9707 10.3406 12.2184C10.5885 12.4666 10.9292 12.6084 11.279 12.6084C11.6287 12.6084 11.9696 12.4666 12.2176 12.2184C12.4655 11.9707 12.6071 11.6296 12.6071 11.2803C12.6071 10.9305 12.4655 10.5894 12.2176 10.3417C11.7217 9.84575 10.8362 9.84575 10.3406 10.3417Z" fill="currentColor"/>
</svg>
