<svg width="28" height="25" viewBox="0 0 28 25" fill="none" xmlns="http://www.w3.org/2000/svg">
<path d="M23.1164 11.7207H21.8137C20.5635 11.7207 19.5343 12.7499 19.5343 14.0001V21.8138C19.5343 23.064 20.5635 24.0933 21.8137 24.0933H23.1164C25.8122 24.0933 28 21.9054 28 19.2097V16.6055C28 13.9098 25.8122 11.722 23.1164 11.722V11.7207Z" fill="currentColor"/>
<path d="M6.18628 11.721H4.88358C2.18784 11.721 0 13.9088 0 16.6046V19.2087C0 21.9044 2.18784 24.0923 4.88358 24.0923H6.18628C7.43647 24.0923 8.4657 23.0631 8.4657 21.8129V13.9991C8.4657 12.7489 7.43647 11.7197 6.18628 11.7197V11.721Z" fill="currentColor"/>
<path d="M24.4179 13.674C23.8844 13.674 23.4412 13.2308 23.4412 12.6973V11.3946C23.4412 6.18503 19.2084 1.95343 14.0001 1.95343C8.7905 1.95343 4.5589 6.18628 4.5589 11.3946V12.6973C4.5589 13.2308 4.1157 13.674 3.58218 13.674C3.04866 13.674 2.60547 13.2308 2.60547 12.6973V11.3946C2.60547 5.11799 7.71002 0 14.0001 0C20.2901 0 25.3947 5.11799 25.3947 11.3946V12.6973C25.3947 13.2308 24.9515 13.674 24.4179 13.674Z" fill="currentColor"/>
</svg>
